<svg xmlns="http://www.w3.org/2000/svg" viewBox="0 0 255.12 282">
  <defs>
    <style>
      .cls-1 { fill: #525252; }
      .cls-2 { fill: #515252; }
      .cls-3 { fill: #ba76aa; }
    </style>
  </defs>
  <g>
    <path class="cls-1" d="m92.71,137.52c-.52,10.91-17.88,20.05-40.55,20.05s-41.54-9.14-41.54-20.05,20.43-22.22,43.1-22.22,39.77,5.88,38.99,22.22Z"/>
    <path class="cls-1" d="m131.79,98.88c-1.73,11.3-16.3,17.05-32.73,14.53s-28.48-12.31-26.75-23.61,17.37-19.55,33.8-17.03c16.43,2.52,27.41,14.81,25.68,26.11Z"/>
    <path class="cls-1" d="m148.73,66.37c-5.6,7.58-20.04,7.16-31.8-1.57-12.85-9.54-16.8-21.9-11.2-29.48s19.69-6.68,31.47,2.02c11.78,8.7,17.12,21.45,11.52,29.04Z"/>
    <path class="cls-2" d="m138.71,4.04c6.34,4.42,9.3,10.66,7.07,13.86-2.23,3.2-8.64,2.55-14.98-1.87-6.34-4.42-10.21-10.94-7.98-14.14,2.23-3.2,9.55-2.28,15.89,2.14Z"/>
    <path class="cls-1" d="m131.27,171.32c2.29,11.15-9.34,24.08-24.72,27.24-16.34,3.36-32.2-3.9-34.49-15.05-2.29-11.15,8.47-21.43,25.76-25.5s31.16,2.16,33.46,13.31Z"/>
    <path class="cls-1" d="m148.17,204.44c5.4,8.04.73,20.76-10.63,30.13s-26.51,10.6-32.34,2.93-1.15-21.42,10.64-30.38c11.8-8.96,26.96-10.68,32.33-2.68Z"/>
    <path class="cls-1" d="m139.74,270.35c-6.07,5.01-13.7,6.35-16.51,3.12-2.57-2.97.4-9.54,6.46-14.55s12.89-6.5,15.51-3.58c3,3.34.6,10-5.47,15.01Z"/>
    <path class="cls-1" d="m188.65,225.87c-3.57,5.38-9.33,7.78-12.66,5.49s-2.92-8.3.6-13.78c3.49-5.44,8.93-7.96,12.3-5.73,3.08,2.04,2.63,9.69-.24,14.02Z"/>
    <path class="cls-3" d="m184.89,185.27c-5.18,11.17-16.93,16.65-24.73,12.51-7.79-4.15-9.9-15.15-4.47-26.32,5.38-11.07,16.4-17.96,24.72-13.79,7.22,3.62,9.77,16.19,4.48,27.6Z"/>
    <path class="cls-3" d="m209.57,135.33c-.02,12.44-5.62,21.05-12.55,21.05s-12.72-9.61-12.72-21.23,5.23-20.92,12.72-20.86c6.93.05,12.56,9.42,12.55,21.05Z"/>
    <path class="cls-1" d="m218.39,179.62c-.58,5.48-4.28,9.67-7.42,9.2s-4.97-5.51-4.1-11.25c.87-5.73,4.39-10.27,7.26-9.52,3.64.95,4.87,5.8,4.25,11.57Z"/>
    <path class="cls-3" d="m244.44,135.93c.69,12.4-5.63,21.59-12.12,21.96s-11.43-9.62-11.57-20.79c-.14-11.55,3.74-21.38,10.77-21.34,6.52.03,12.28,8.59,12.92,20.18Z"/>
    <path class="cls-3" d="m224.62,90.31c2.2,11.67-2.72,23.28-8.62,24.05-6.45.85-12.86-8.72-14.88-19.71s.97-20.98,7.72-21.95c6.45-.93,13.65,6.26,15.79,17.6Z"/>
    <path class="cls-1" d="m158.39,135c0,5.87-4.98,10.62-11.12,10.62s-11.25-4.76-11.12-10.62,5.93-10.35,11.24-10.35c6.14,0,11,4.49,11,10.35Z"/>
    <path class="cls-1" d="m178.56,88.86c2.46,4.66,2.2,10.84-1.76,13.17s-9.37-.9-12.05-5.83c-2.84-5.22-1.93-11.1,1.86-13.14s9.18.54,11.96,5.79Z"/>
    <path class="cls-3" d="m194.27,41.84c7.48,10.56,6.44,24.65.58,28.46-6.68,4.34-17.1-2.27-23.93-12.35-6.71-9.92-8.56-21.47-1.88-25.87,6.39-4.21,17.96-.51,25.22,9.76Z"/>
  </g>
</svg>
