<?xml version="1.0" encoding="UTF-8"?>
<svg id="_レイヤー_2" data-name="レイヤー 2" xmlns="http://www.w3.org/2000/svg" viewBox="0 0 340.16 70.62">
  <defs>
    <style>
      .cls-1 {
        fill: #fff;
        stroke-width: 0px;
      }
    </style>
  </defs>
  <g id="logo">
    <g>
      <g>
        <path class="cls-1" d="m21.06,35.29c-.13,2.8-4.59,5.15-10.4,5.15S0,38.09,0,35.29s5.24-5.7,11.06-5.7,10.2,1.51,10,5.7Z"/>
        <path class="cls-1" d="m31.09,25.37c-.44,2.9-4.18,4.37-8.4,3.73-4.22-.65-7.31-3.16-6.86-6.06s4.46-5.02,8.67-4.37,7.03,3.8,6.59,6.7Z"/>
        <path class="cls-1" d="m35.44,17.03c-1.44,1.95-5.14,1.84-8.16-.4-3.3-2.45-4.31-5.62-2.87-7.57,1.44-1.95,5.05-1.71,8.08.52,3.02,2.23,4.39,5.5,2.96,7.45Z"/>
        <path class="cls-1" d="m32.86,1.04c1.63,1.13,2.39,2.74,1.82,3.56s-2.22.65-3.84-.48-2.62-2.81-2.05-3.63,2.45-.58,4.08.55Z"/>
        <path class="cls-1" d="m30.96,43.96c.59,2.86-2.4,6.18-6.34,6.99-4.19.86-8.26-1-8.85-3.86s2.17-5.5,6.61-6.54,8,.55,8.58,3.42Z"/>
        <path class="cls-1" d="m35.29,52.46c1.39,2.06.19,5.33-2.73,7.73-2.93,2.42-6.8,2.72-8.3.75s-.3-5.5,2.73-7.79,6.92-2.74,8.3-.69Z"/>
        <path class="cls-1" d="m33.13,69.37c-1.56,1.28-3.52,1.63-4.24.8-.66-.76.1-2.45,1.66-3.73s3.31-1.67,3.98-.92c.77.86.15,2.57-1.4,3.85Z"/>
        <path class="cls-1" d="m45.68,57.96c-.92,1.38-2.39,2-3.25,1.41s-.75-2.13.15-3.54c.9-1.4,2.29-2.04,3.16-1.47.79.52.67,2.49-.06,3.6Z"/>
        <path class="cls-1" d="m44.72,47.54c-1.33,2.87-4.35,4.27-6.35,3.21s-2.54-3.89-1.15-6.75c1.38-2.84,4.21-4.61,6.34-3.54,1.85.93,2.51,4.15,1.15,7.08Z"/>
        <path class="cls-1" d="m51.05,34.72c0,3.19-1.44,5.4-3.22,5.4s-3.26-2.46-3.26-5.45,1.34-5.37,3.26-5.35c1.78.01,3.22,2.42,3.22,5.4Z"/>
        <path class="cls-1" d="m53.31,46.09c-.15,1.41-1.1,2.48-1.9,2.36s-1.28-1.41-1.05-2.89,1.13-2.63,1.86-2.44c.93.24,1.25,1.49,1.09,2.97Z"/>
        <path class="cls-1" d="m60,34.88c.18,3.18-1.44,5.54-3.11,5.63s-2.93-2.47-2.97-5.34c-.04-2.96.96-5.49,2.76-5.48,1.67,0,3.15,2.2,3.32,5.18Z"/>
        <path class="cls-1" d="m54.91,23.17c.56,3-.7,5.97-2.21,6.17-1.65.22-3.3-2.24-3.82-5.06-.52-2.85.25-5.38,1.98-5.63s3.5,1.61,4.05,4.52Z"/>
        <path class="cls-1" d="m37.92,34.64c0,1.51-1.28,2.73-2.85,2.73s-2.89-1.22-2.85-2.73c.03-1.47,1.52-2.66,2.89-2.66,1.58,0,2.82,1.15,2.82,2.66Z"/>
        <path class="cls-1" d="m43.09,22.8c.63,1.2.57,2.78-.45,3.38s-2.41-.23-3.09-1.49c-.73-1.34-.5-2.85.48-3.37s2.35.14,3.07,1.49Z"/>
        <path class="cls-1" d="m47.12,10.74c1.92,2.71,1.65,6.33.15,7.3-1.71,1.11-4.39-.58-6.14-3.17-1.72-2.55-2.2-5.51-.48-6.64,1.64-1.08,4.61-.13,6.47,2.5Z"/>
      </g>
      <g>
        <path class="cls-1" d="m76.82,8.65v54.28h16.1v3.46h-19.91V8.65h3.81Z"/>
        <path class="cls-1" d="m127.38,31.07h3.46v35.32h-3.46v-6.32c-3.55,5.45-9.18,7.27-13.76,7.27-9.26,0-17.23-7.01-17.23-18.61,0-10.91,6.93-18.44,17.23-18.44,5.54,0,10.39,2.16,13.76,6.93v-6.15Zm-27.36,17.4c0,7.96,4.93,15.58,13.85,15.58s13.68-7.44,13.68-15.58c0-10.47-7.7-14.89-13.76-14.89-7.01,0-13.76,5.28-13.76,14.89Z"/>
        <path class="cls-1" d="m143.31,31.07h3.46v5.54c1.64-2.94,4.85-6.32,10.82-6.32,6.32,0,9,3.72,9.78,4.93,1.56,2.51,1.73,5.8,1.73,8.92v22.25h-3.46v-22.25c0-2.42-.09-5.11-1.39-7.1-.78-1.3-2.68-3.46-6.93-3.46-4.85,0-7.36,2.6-8.66,4.93-1.56,2.77-1.9,6.06-1.9,9.52v18.35h-3.46V31.07Z"/>
        <path class="cls-1" d="m196.63,37.56c-1.21-2.77-3.64-3.98-6.15-3.98-3.98,0-5.97,3.03-5.97,5.63,0,3.46,2.77,4.59,6.23,5.97,3.55,1.39,6.84,2.34,9.09,5.19,1.47,1.82,1.82,3.72,1.82,5.71,0,8.05-6.06,11.25-11.51,11.25-5.89,0-10.73-3.46-12.21-9.35l3.38-1.04c1.21,4.68,4.93,7.1,8.83,7.1,4.5,0,7.88-3.2,7.88-7.79,0-3.98-2.51-5.45-7.88-7.62-3.55-1.47-6.15-2.6-7.7-4.68-.78-1.04-1.56-2.51-1.56-4.59,0-5.37,4.07-9.09,9.44-9.09,4.16,0,7.62,1.9,9.26,5.71l-2.94,1.56Z"/>
        <path class="cls-1" d="m218.79,12.11v54.28h-3.81V12.11h-14.98v-3.46h33.76v3.46h-14.98Z"/>
        <path class="cls-1" d="m235.67,49.16c0,9,6.58,14.89,14.02,14.89,5.71,0,10.04-3.38,12.29-8.05l2.94,1.73c-2.08,3.98-6.75,9.61-15.5,9.61-10.99,0-17.4-8.14-17.4-18.44,0-12.29,8.48-18.61,17.14-18.61,9.52,0,16.71,7.62,16.71,18.87h-30.21Zm26.58-3.29c-.87-7.01-6.06-12.29-13.07-12.29s-12.29,5.45-13.24,12.29h26.32Z"/>
        <path class="cls-1" d="m304.41,39.38c-2.34-2.68-6.41-5.8-12.21-5.8-8.66,0-14.72,6.67-14.72,15.32,0,10.13,7.7,15.15,14.54,15.15,5.63,0,10.04-3.29,12.81-6.32v4.68c-2.34,2.08-6.67,4.93-12.9,4.93-10.65,0-18.09-7.88-18.09-18.35s7.01-18.7,18.35-18.7c2.51,0,7.36.43,12.21,4.5v4.59Z"/>
        <path class="cls-1" d="m314.36,3.28h3.46v33.33c1.65-2.94,4.85-6.32,10.82-6.32,6.32,0,9,3.72,9.78,4.93,1.56,2.51,1.73,5.8,1.73,8.92v22.25h-3.46v-22.25c0-2.42-.09-5.11-1.38-7.1-.78-1.3-2.68-3.46-6.93-3.46-4.85,0-7.36,2.6-8.66,4.93-1.56,2.77-1.9,6.06-1.9,9.52v18.35h-3.46V3.28Z"/>
      </g>
    </g>
  </g>
</svg>