<svg width="662" height="400" viewBox="0 0 662 400" fill="none" xmlns="http://www.w3.org/2000/svg">
<rect width="662" height="400" fill="white"/>
<mask id="mask0_2020_2103" style="mask-type:alpha" maskUnits="userSpaceOnUse" x="0" y="0" width="662" height="400">
<rect width="662" height="400" fill="#D9D9D9"/>
</mask>
<g mask="url(#mask0_2020_2103)">
<path d="M713.418 315.465L304.365 421.699" stroke="#289E59"/>
<path d="M727.068 222.675L395.338 433.474" stroke="#525252"/>
<path d="M720.479 121.656L532.744 466.964" stroke="#BA76AA"/>
</g>
<mask id="mask1_2020_2103" style="mask-type:alpha" maskUnits="userSpaceOnUse" x="0" y="0" width="662" height="400">
<rect x="662" y="400" width="662" height="400" transform="rotate(-180 662 400)" fill="#D9D9D9"/>
</mask>
<g mask="url(#mask1_2020_2103)">
<path d="M-51.4189 84.5352L357.634 -21.6994" stroke="#289E59"/>
<path d="M-65.0684 177.325L266.662 -33.4743" stroke="#525252"/>
<path d="M-58.4775 278.344L129.257 -66.9635" stroke="#BA76AA"/>
</g>
<g clip-path="url(#clip0_2020_2103)">
<path d="M469.144 42.9144C469.075 44.4152 466.715 45.6747 463.641 45.6747C460.566 45.6747 458 44.4152 458 42.9144C458 41.4137 460.773 39.8594 463.853 39.8594C466.932 39.8594 469.25 40.6687 469.144 42.9144Z" fill="#525252"/>
<path d="M474.452 37.5975C474.219 39.1519 472.24 39.9397 470.007 39.5967C467.774 39.2537 466.138 37.903 466.377 36.3487C466.615 34.7944 468.737 33.6581 470.964 34.0065C473.192 34.3549 474.684 36.0432 474.452 37.5975Z" fill="#525252"/>
<path d="M476.753 33.1279C475.991 34.173 474.033 34.1141 472.435 32.9135C470.689 31.6003 470.154 29.9013 470.916 28.8562C471.678 27.811 473.588 27.9396 475.192 29.1349C476.795 30.3301 477.515 32.0827 476.758 33.1279H476.753Z" fill="#525252"/>
<path d="M475.388 24.5573C476.25 25.1629 476.652 26.0258 476.351 26.4653C476.049 26.9048 475.176 26.8137 474.319 26.2081C473.461 25.6024 472.932 24.702 473.234 24.2625C473.535 23.823 474.53 23.9516 475.393 24.5573H475.388Z" fill="#525252"/>
<path d="M474.383 47.5616C474.695 49.0944 473.113 50.8739 471.028 51.308C468.81 51.7689 466.657 50.772 466.345 49.2392C466.032 47.7063 467.493 46.2913 469.842 45.7339C472.192 45.1765 474.076 46.0287 474.383 47.5669V47.5616Z" fill="#525252"/>
<path d="M476.674 52.1174C477.41 53.2215 476.775 54.9741 475.229 56.2604C473.679 57.5575 471.631 57.7183 470.837 56.6624C470.044 55.6066 470.679 53.7146 472.282 52.4872C473.885 51.2598 475.944 51.0186 476.674 52.1174Z" fill="#525252"/>
<path d="M475.532 61.181C474.706 61.867 473.669 62.0546 473.288 61.6097C472.939 61.2024 473.341 60.2966 474.167 59.6106C474.992 58.9245 475.918 58.7155 476.273 59.1175C476.68 59.5784 476.352 60.4949 475.532 61.181Z" fill="#525252"/>
<path d="M482.172 55.0652C481.685 55.8049 480.907 56.1372 480.452 55.821C479.997 55.5047 480.055 54.6793 480.531 53.9236C481.008 53.1732 481.743 52.8302 482.204 53.1357C482.622 53.4144 482.558 54.4703 482.172 55.0652Z" fill="#525252"/>
<path d="M481.664 49.4803C480.96 51.0186 479.362 51.7689 478.303 51.2008C477.245 50.6327 476.959 49.1159 477.695 47.583C478.425 46.0608 479.923 45.1121 481.05 45.6856C482.029 46.1841 482.378 47.9099 481.658 49.4803H481.664Z" fill="#BA76AA"/>
<path d="M485.013 42.6092C485.013 44.3189 484.251 45.5034 483.309 45.5034C482.367 45.5034 481.584 44.1849 481.584 42.5824C481.584 40.9798 482.293 39.7042 483.309 39.7149C484.251 39.7203 485.013 41.012 485.013 42.6092Z" fill="#BA76AA"/>
<path d="M486.211 48.7035C486.131 49.4592 485.629 50.0327 485.205 49.9684C484.782 49.904 484.528 49.2126 484.65 48.4194C484.771 47.6262 485.248 47.0098 485.634 47.1116C486.126 47.2403 486.295 47.9102 486.211 48.7035Z" fill="#525252"/>
<path d="M489.751 42.6948C489.846 44.3992 488.989 45.6641 488.105 45.7123C487.222 45.7606 486.555 44.3885 486.534 42.8502C486.513 41.2638 487.042 39.9077 487.994 39.9131C488.878 39.9131 489.661 41.0922 489.751 42.6894V42.6948Z" fill="#BA76AA"/>
<path d="M487.057 36.418C487.353 38.0259 486.686 39.6178 485.887 39.725C485.014 39.8429 484.141 38.5244 483.866 37.013C483.591 35.4854 483.998 34.1294 484.914 33.9954C485.829 33.8614 486.766 34.8583 487.057 36.418Z" fill="#BA76AA"/>
<path d="M478.066 42.5663C478.066 43.3756 477.388 44.0295 476.557 44.0295C475.727 44.0295 475.028 43.3756 475.049 42.5663C475.065 41.7784 475.854 41.1406 476.579 41.1406C477.415 41.1406 478.071 41.757 478.071 42.5663H478.066Z" fill="#525252"/>
<path d="M480.801 36.2204C481.135 36.8636 481.103 37.7104 480.563 38.032C480.023 38.3536 479.288 37.9087 478.928 37.2334C478.542 36.5152 478.663 35.7059 479.182 35.4272C479.701 35.1485 480.426 35.5022 480.807 36.2258L480.801 36.2204Z" fill="#525252"/>
<path d="M482.934 29.7567C483.95 31.2092 483.807 33.1494 483.013 33.6693C482.108 34.2642 480.69 33.3584 479.764 31.9703C478.854 30.6035 478.6 29.017 479.51 28.4114C480.378 27.8325 481.95 28.3417 482.934 29.7513V29.7567Z" fill="#BA76AA"/>
<path d="M498.649 28.6357V57.7284H507.168V59.5829H496.633V28.6357H498.649Z" fill="#525252"/>
<path d="M525.403 40.6524H527.234V59.583H525.403V56.1957C523.524 59.1167 520.545 60.0922 518.121 60.0922C513.221 60.0922 509.004 56.335 509.004 50.1177C509.004 44.2703 512.671 40.2344 518.121 40.2344C521.053 40.2344 523.619 41.3921 525.403 43.9487V40.6524ZM510.925 49.9784C510.925 54.2447 513.534 58.3288 518.254 58.3288C522.974 58.3288 525.493 54.3412 525.493 49.9784C525.493 44.3667 521.418 41.9977 518.211 41.9977C514.502 41.9977 510.93 44.8277 510.93 49.9784H510.925Z" fill="#525252"/>
<path d="M533.833 40.6524H535.664V43.6217C536.532 42.046 538.231 40.2344 541.39 40.2344C544.734 40.2344 546.152 42.2282 546.565 42.8767C547.391 44.222 547.481 45.9854 547.481 47.6576V59.583H545.65V47.6576C545.65 46.3606 545.602 44.9188 544.914 43.8522C544.501 43.1554 543.496 41.9977 541.247 41.9977C538.681 41.9977 537.352 43.3913 536.664 44.6401C535.839 46.1247 535.659 47.8881 535.659 49.7425V59.5777H533.828V40.6524H533.833Z" fill="#525252"/>
<path d="M562.048 44.1309C561.407 42.6462 560.122 41.9977 558.793 41.9977C556.687 41.9977 555.634 43.6217 555.634 45.0152C555.634 46.8697 557.1 47.4754 558.931 48.215C560.809 48.96 562.55 49.4692 563.741 50.9967C564.519 51.9722 564.704 52.9905 564.704 54.0571C564.704 58.3717 561.497 60.0868 558.613 60.0868C555.497 60.0868 552.936 58.2323 552.152 55.0755L553.941 54.5181C554.581 57.0264 556.55 58.3235 558.613 58.3235C560.995 58.3235 562.783 56.6083 562.783 54.1482C562.783 52.0151 561.455 51.2272 558.613 50.0641C556.735 49.2762 555.359 48.6706 554.539 47.5558C554.126 46.9983 553.713 46.2105 553.713 45.0956C553.713 42.2175 555.867 40.2236 558.709 40.2236C560.91 40.2236 562.741 41.242 563.609 43.284L562.053 44.1202L562.048 44.1309Z" fill="#525252"/>
<path d="M573.773 30.4902V59.5829H571.757V30.4902H563.83V28.6357H581.695V30.4902H573.768H573.773Z" fill="#BA76AA"/>
<path d="M582.707 50.3482C582.707 55.172 586.189 58.3288 590.126 58.3288C593.147 58.3288 595.438 56.5173 596.629 54.0143L598.185 54.9415C597.084 57.0747 594.613 60.0922 589.983 60.0922C584.167 60.0922 580.775 55.7294 580.775 50.2088C580.775 43.6217 585.263 40.2344 589.845 40.2344C594.883 40.2344 598.688 44.3185 598.688 50.3482H582.702H582.707ZM596.772 48.5848C596.312 44.8277 593.565 41.9977 589.856 41.9977C586.146 41.9977 583.352 44.9188 582.85 48.5848H596.777H596.772Z" fill="#525252"/>
<path d="M619.081 45.1064C617.843 43.67 615.689 41.9977 612.62 41.9977C608.037 41.9977 604.83 45.5727 604.83 50.2088C604.83 55.6383 608.905 58.3288 612.524 58.3288C615.504 58.3288 617.837 56.5655 619.303 54.9415V57.4499C618.065 58.5647 615.774 60.0922 612.477 60.0922C606.841 60.0922 602.904 55.8687 602.904 50.2571C602.904 44.6454 606.614 40.2344 612.614 40.2344C613.943 40.2344 616.509 40.4648 619.076 42.6463V45.1064H619.081Z" fill="#525252"/>
<path d="M624.348 25.7578H626.179V43.6218C627.052 42.0461 628.745 40.2345 631.904 40.2345C635.248 40.2345 636.667 42.2283 637.079 42.8768C637.905 44.2221 637.995 45.9855 637.995 47.6577V59.5831H636.164V47.6577C636.164 46.3606 636.116 44.9189 635.434 43.8523C635.021 43.1555 634.015 41.9978 631.767 41.9978C629.2 41.9978 627.872 43.3913 627.184 44.6402C626.358 46.1248 626.179 47.8882 626.179 49.7426V59.5778H624.348V25.7578Z" fill="#525252"/>
</g>
<defs>
<clipPath id="clip0_2020_2103">
<rect width="180" height="37.8505" fill="white" transform="translate(458 24)"/>
</clipPath>
</defs>
</svg>
