<svg width="662" height="400" viewBox="0 0 662 400" fill="none" xmlns="http://www.w3.org/2000/svg">
<g clip-path="url(#clip0_2020_2172)">
<rect width="662" height="400" fill="#525252"/>
<path d="M176.096 232.38H175.008V224.044H179.248V225.036H176.096V232.38ZM187.008 233.164H188.528C188.336 232.716 188.208 232.492 187.92 232.092L188.752 231.836C189.04 232.3 189.216 232.652 189.424 233.164H191.536C191.792 232.764 192 232.332 192.208 231.82L193.056 232.108C192.72 232.764 192.704 232.796 192.464 233.164H193.84C194.624 233.164 194.992 233.148 195.392 233.1V234.044C195.056 233.996 194.784 233.98 193.856 233.98H186.976C186.128 233.98 185.808 233.996 185.488 234.044V233.1C185.872 233.148 186.208 233.164 187.008 233.164ZM183.552 227.468H184.336C184.992 227.468 185.392 227.452 185.728 227.404C185.68 227.884 185.664 227.996 185.632 228.412C185.456 230.94 185.072 232.764 184.416 234.284C184.96 234.812 185.232 235.116 185.872 235.916L185.264 236.764C184.624 235.916 184.352 235.612 183.968 235.196C183.2 236.588 182.576 237.356 181.424 238.396C181.216 238.076 181.024 237.836 180.72 237.564C181.92 236.572 182.528 235.852 183.28 234.492C182.624 233.884 182.192 233.532 181.136 232.796C181.728 231.244 182.048 230.124 182.416 228.348H182.128C181.504 228.348 181.136 228.364 180.832 228.428V227.388C181.168 227.452 181.52 227.468 182.16 227.468H182.592C182.816 226.108 182.928 225.228 182.928 224.556C182.928 224.556 182.928 224.524 182.928 224.476C182.928 224.444 182.912 224.38 182.912 224.3L184.032 224.444C183.984 224.668 183.952 224.828 183.888 225.356C183.808 225.868 183.648 226.86 183.552 227.468ZM184.752 228.348H183.376C183.12 229.644 182.72 231.068 182.208 232.492C182.976 233.036 183.264 233.26 183.696 233.628C184.208 232.428 184.448 231.196 184.752 228.348ZM189.952 225.5V225.228C189.952 224.892 189.92 224.492 189.888 224.156H190.944C190.896 224.588 190.88 224.876 190.88 225.228V225.5H193.536C194.272 225.5 194.688 225.484 195.12 225.404V226.396C194.704 226.332 194.32 226.316 193.536 226.316H190.88V227.372H193.216C194.016 227.372 194.336 227.356 194.752 227.308V228.236C194.384 228.188 194.112 228.172 193.232 228.172H187.936C187.072 228.172 186.816 228.188 186.416 228.236V227.308C186.848 227.356 187.184 227.372 187.968 227.372H189.952V226.316H187.344C186.528 226.316 186.192 226.332 185.808 226.396V225.404C186.24 225.484 186.64 225.5 187.392 225.5H189.952ZM192.976 231.772H188.016C187.76 231.772 187.232 231.788 186.976 231.804C186.992 231.58 186.992 231.58 187.008 230.812V229.964C187.008 229.228 187.008 229.228 186.976 228.988C187.28 229.02 187.424 229.02 188.112 229.02H192.928C193.616 229.02 193.744 229.02 193.984 228.988C193.952 229.244 193.952 229.372 193.952 229.98V230.828C193.952 231.436 193.952 231.644 193.984 231.804C193.584 231.772 193.344 231.772 192.976 231.772ZM187.92 229.772V231.02H193.04V229.772H187.92ZM187.744 238.06V238.764H186.704C186.752 238.396 186.784 237.948 186.784 237.356V236.092C186.784 235.596 186.768 235.212 186.72 234.764C187.056 234.812 187.36 234.828 188.064 234.828H192.976C193.696 234.828 194.048 234.812 194.336 234.764C194.288 235.084 194.272 235.468 194.272 236.14V237.308C194.272 237.916 194.304 238.316 194.368 238.764H193.312V238.06H187.744ZM187.744 235.628V237.26H193.312V235.628H187.744ZM199.712 225.02H201.104C201.008 225.564 200.944 226.38 200.896 228.396C200.832 230.316 200.784 232.492 200.784 233.212C200.784 233.404 200.8 233.804 200.816 234.172C200.88 235.132 201.088 235.66 201.568 236.092C202.016 236.492 202.736 236.716 203.568 236.716C205.472 236.716 206.944 235.756 207.856 233.932C208.224 233.164 208.416 232.54 208.64 231.42C209.088 231.804 209.28 231.932 209.792 232.188C209.184 234.06 208.72 235.004 208.016 235.82C206.88 237.164 205.376 237.82 203.504 237.82C202.144 237.82 201.136 237.436 200.496 236.7C199.84 235.948 199.616 235.1 199.616 233.42C199.616 232.348 199.632 231.948 199.76 226.908C199.776 226.428 199.776 226.124 199.776 225.868C199.776 225.532 199.76 225.34 199.712 225.02ZM214.176 226.156L215.52 226.172C215.44 226.668 215.408 227.196 215.408 228.076C215.408 229.836 215.584 232.028 215.824 233.052C216.176 234.684 216.832 235.788 217.44 235.788C217.728 235.788 218 235.516 218.24 234.988C218.608 234.188 218.864 233.34 219.072 232.252C219.424 232.668 219.568 232.812 220.016 233.164C219.232 235.964 218.496 237.036 217.36 237.036C216.464 237.036 215.632 236.14 215.088 234.604C214.528 233.084 214.304 231.036 214.224 227.1C214.208 226.492 214.208 226.444 214.176 226.156ZM222.272 227.516L223.248 227.02C224.288 228.252 224.944 229.308 225.536 230.668C226.144 232.012 226.448 233.148 226.736 234.94L225.6 235.404C225.312 232.428 224.144 229.692 222.272 227.516ZM231.904 230.46H232.992V238.796H228.752V237.804H231.904V230.46ZM245.52 228.172L245.44 226.908C245.744 226.924 245.904 226.924 246.016 226.924C246.24 226.924 246.432 226.908 246.928 226.876C247.824 226.812 247.92 226.796 249.888 226.684L252.4 226.524C254.368 226.412 254.576 226.396 255.104 226.38L256.016 226.348C257.392 226.268 257.696 226.236 257.92 226.172L258.016 227.356C257.376 227.356 256.832 227.42 256.224 227.58C255.152 227.852 254.032 228.428 253.152 229.18C251.872 230.252 251.184 231.548 251.184 232.876C251.184 234.22 252 235.292 253.424 235.836C254.208 236.124 255.216 236.348 255.824 236.348C255.856 236.348 255.92 236.348 255.984 236.348L255.776 237.644C255.6 237.612 255.568 237.596 255.28 237.548C253.696 237.276 252.736 236.94 251.824 236.316C250.688 235.548 250.048 234.38 250.048 233.052C250.048 231.196 251.136 229.436 253.04 228.14C253.536 227.804 253.952 227.58 254.56 227.292C253.648 227.452 252.72 227.532 251.04 227.644C247.856 227.868 246.096 228.028 245.52 228.172ZM255.344 229.708L256.144 229.292C256.864 230.156 257.312 230.828 257.792 231.772L256.976 232.252C256.592 231.404 255.824 230.204 255.344 229.708ZM257.168 228.844L257.952 228.412C258.672 229.292 259.072 229.9 259.6 230.908L258.8 231.356C258.448 230.604 257.792 229.58 257.168 228.844ZM268.016 227.548H272.144C273.104 227.548 273.584 227.532 274.016 227.468C273.968 228.044 273.968 228.044 273.936 229.564C273.888 231.916 273.632 235.132 273.376 236.316C273.088 237.708 272.608 238.14 271.328 238.14C270.56 238.14 269.696 238.06 268.48 237.884C268.432 237.42 268.352 237.116 268.208 236.684C269.456 236.956 270.416 237.084 271.248 237.084C272.096 237.084 272.304 236.684 272.544 234.748C272.736 233.196 272.864 231.052 272.896 228.524H267.952C267.76 230.716 267.2 232.732 266.368 234.172C265.44 235.82 264.08 237.084 261.92 238.316C261.648 237.884 261.376 237.596 261.072 237.42C262.32 236.828 262.976 236.396 263.76 235.692C265.616 234.012 266.512 231.948 266.88 228.524H263.744C262.832 228.524 262.192 228.556 261.776 228.62V227.452C262.224 227.516 262.752 227.548 263.76 227.548H266.944C266.992 226.828 267.008 226.316 267.008 225.66C267.008 224.908 266.976 224.492 266.912 224.108H268.176C268.128 224.492 268.112 224.732 268.096 225.404C268.096 226.156 268.096 226.156 268.016 227.548ZM281.552 226.732H281.808C282.336 225.612 282.528 225.052 282.576 224.54L283.856 224.764C283.712 224.972 283.712 224.972 283.44 225.628C283.232 226.14 283.024 226.572 282.944 226.716C283.136 226.7 283.136 226.7 283.28 226.7C285.84 226.572 287.44 226.38 288.32 226.092L288.416 227.18C288.16 227.196 288.064 227.212 287.776 227.26C286.112 227.484 284.432 227.612 282.496 227.676C282.016 228.62 281.616 229.26 281.056 229.948C280.896 230.14 280.576 230.508 280.512 230.556C280.4 230.636 280.32 230.7 280.304 230.716C280.304 230.732 280.288 230.732 280.288 230.732C280.288 230.748 280.288 230.748 280.288 230.748C280.304 230.78 280.304 230.78 280.32 230.796C280.896 230.348 280.896 230.348 281.056 230.236C281.792 229.724 282.64 229.452 283.472 229.452C284.656 229.452 285.376 230.044 285.584 231.228C286.752 230.764 287.664 230.428 288.368 230.172C289.152 229.9 289.2 229.884 289.456 229.708L289.968 230.828C289.136 230.972 287.696 231.452 285.696 232.236C285.728 232.652 285.728 232.812 285.728 233.212C285.728 233.42 285.728 233.772 285.712 234.092C285.696 234.444 285.696 234.668 285.696 234.812C285.696 235.036 285.696 235.164 285.728 235.388L284.64 235.404C284.688 235.052 284.736 234.076 284.736 233.1C284.736 232.844 284.736 232.812 284.72 232.62C282.544 233.644 281.712 234.396 281.712 235.356C281.712 236.412 282.704 236.876 284.96 236.876C286.544 236.876 288.32 236.62 289.232 236.252L289.376 237.484C289.136 237.5 289.056 237.516 288.736 237.564C287.472 237.772 286.08 237.884 284.848 237.884C281.984 237.884 280.592 237.068 280.592 235.42C280.592 234.54 281.136 233.708 282.224 232.892C282.768 232.492 283.536 232.076 284.608 231.612C284.48 230.732 284.096 230.348 283.344 230.348C282.336 230.348 281.072 230.94 279.776 232.044C279.152 232.572 278.8 232.94 278.544 233.372L277.648 232.476C278.752 231.628 280.08 229.948 281.232 227.9C281.28 227.82 281.28 227.82 281.376 227.66C281.312 227.676 281.152 227.692 281.072 227.692C280.816 227.692 279.312 227.66 278.72 227.644C278.64 227.644 278.512 227.644 278.464 227.644C278.32 227.644 278.288 227.644 278.112 227.66L278.128 226.556C278.704 226.668 279.92 226.732 281.552 226.732ZM296.672 224.3H297.744C298.032 224.716 298.304 225.004 298.912 225.548C299.632 226.188 300.176 226.556 301.232 227.148C300.992 227.468 300.88 227.66 300.72 228.028C298.976 226.908 298.224 226.268 297.264 225.1C296.688 225.98 296.336 226.396 295.632 227.1C294.88 227.836 294.352 228.268 293.2 229.068C292.976 228.7 292.864 228.572 292.528 228.268C293.952 227.356 294.768 226.7 295.632 225.74C296.08 225.244 296.352 224.86 296.672 224.3ZM295.632 228.012V227.116C295.888 227.164 296.16 227.18 296.592 227.18H298.24C298.688 227.18 298.912 227.164 299.184 227.116V228.012C298.928 227.964 298.704 227.948 298.304 227.948H296.56C296.112 227.948 295.904 227.964 295.632 228.012ZM299.632 237.852H295.904V238.636H294.896C294.944 238.252 294.976 237.804 294.976 237.308V235.548C294.976 234.924 294.96 234.668 294.928 234.284C295.264 234.316 295.504 234.332 296.128 234.332H299.488C299.936 234.332 300.224 234.316 300.624 234.268C300.576 234.652 300.56 234.908 300.56 235.468V237.084C300.56 237.612 300.576 238.012 300.64 238.396H299.632V237.852ZM295.92 235.132V237.052H299.616V235.132H295.92ZM302.064 225.356H303.264C303.184 225.756 303.168 226.204 303.168 227.1V233.212C303.168 234.284 303.184 234.572 303.248 235.004H302.08C302.144 234.556 302.16 234.236 302.16 233.212V227.1C302.16 226.252 302.128 225.788 302.064 225.356ZM299.312 233.34H294.912C294.592 235.468 294.272 236.412 293.344 238.076C293.04 237.74 292.848 237.564 292.528 237.356C293.696 235.548 294.144 233.596 294.144 230.348C294.144 229.66 294.128 229.276 294.08 228.844C294.624 228.892 294.928 228.908 295.632 228.908H299.216C299.744 228.908 299.984 228.892 300.464 228.844C300.416 229.212 300.4 229.532 300.4 230.06V232.188C300.4 232.732 300.416 233.036 300.464 233.388C300.08 233.356 299.824 233.34 299.312 233.34ZM295.072 230.684H299.504V229.692H295.072V230.444C295.072 230.556 295.072 230.604 295.072 230.684ZM299.504 231.452H295.056C295.04 231.9 295.024 232.076 294.976 232.556H299.504V231.452ZM305.408 224.316H306.656C306.576 224.78 306.544 225.324 306.544 226.252V236.876C306.544 238.044 306.224 238.284 304.656 238.284C304.288 238.284 303.904 238.268 303.184 238.22C303.12 237.772 303.056 237.532 302.896 237.196C303.568 237.308 304.224 237.356 304.832 237.356C305.392 237.356 305.52 237.26 305.52 236.876V226.268C305.52 225.308 305.488 224.828 305.408 224.316ZM312.256 224.54L313.504 224.668C313.376 225.004 313.28 225.452 313.136 226.316C312.88 227.932 312.656 229.676 312.608 230.492L312.672 230.508C312.704 230.38 312.704 230.38 312.784 230.044C312.976 229.164 313.296 228.38 313.76 227.66C314.656 226.284 315.712 225.596 316.96 225.596C318 225.596 318.896 226.092 319.52 227.02C320.192 228.012 320.48 229.196 320.48 230.908C320.48 233.804 319.184 235.996 316.784 237.196C316.016 237.58 315.056 237.9 313.936 238.14C313.744 237.66 313.648 237.484 313.296 237.052C314.784 236.828 315.616 236.572 316.544 236.044C318.416 234.972 319.296 233.292 319.296 230.732C319.296 228.156 318.4 226.668 316.864 226.668C315.648 226.668 314.624 227.58 313.712 229.452C313.152 230.62 312.848 231.852 312.848 233.02C312.848 233.084 312.848 233.164 312.864 233.404L311.712 233.452C311.712 233.372 311.712 233.308 311.712 233.276L311.696 232.988L311.664 231.324C311.664 231.18 311.664 231.036 311.664 230.956C311.664 229.388 311.808 227.884 312.208 225.052C312.24 224.812 312.256 224.732 312.256 224.54ZM331.36 229.772V225.724C331.36 225.004 331.328 224.636 331.248 224.268H332.544C332.464 224.716 332.432 225.052 332.432 225.724V229.772H336.64V226.748C336.64 226.3 336.624 225.948 336.576 225.58H337.776C337.712 226.044 337.696 226.348 337.696 226.796V229.98C337.696 230.3 337.712 230.524 337.728 230.796C337.408 230.78 337.04 230.764 336.736 230.764H332.432V236.62H337.2V233.58C337.2 233.004 337.184 232.604 337.12 232.204H338.336C338.272 232.62 338.256 233.004 338.256 233.628V237.244C338.256 237.82 338.288 238.172 338.352 238.588H337.2V237.628H326.8V238.588H325.648C325.712 238.188 325.744 237.756 325.744 237.244V233.724C325.744 233.116 325.728 232.7 325.664 232.3H326.88C326.816 232.7 326.8 233.052 326.8 233.66V236.62H331.36V230.764H327.36C327.072 230.764 326.704 230.78 326.368 230.796C326.384 230.492 326.4 230.252 326.4 229.98V226.812C326.4 226.412 326.368 226.028 326.32 225.58H327.52C327.472 225.916 327.456 226.268 327.456 226.764V229.772H331.36ZM348.848 226.844L348.816 225.58C348.816 225.164 348.8 224.988 348.752 224.652H349.952C349.888 225.164 349.872 225.404 349.872 226.652V226.828C352.896 226.812 354.128 226.78 354.656 226.716V227.852C354.064 227.788 353.504 227.772 351.6 227.772C351.36 227.772 351.184 227.772 349.888 227.804V230.972C350.16 231.644 350.272 232.156 350.272 232.86C350.272 234.524 349.504 235.996 348.128 237.036C347.472 237.516 346.768 237.884 345.6 238.332C345.328 237.82 345.232 237.676 344.896 237.324C346.144 236.924 346.848 236.604 347.488 236.124C348.656 235.244 349.216 234.204 349.28 232.748C349.136 233.132 349.04 233.308 348.848 233.532C348.368 234.108 347.68 234.396 346.832 234.396C345.296 234.396 344.208 233.34 344.208 231.868C344.208 230.348 345.408 229.228 347.04 229.228C347.808 229.228 348.48 229.484 348.896 229.948C348.88 229.724 348.88 229.66 348.88 229.068C348.88 229.004 348.864 228.844 348.864 228.652C348.864 228.428 348.864 228.428 348.864 227.82C345.648 227.884 342.416 228.044 341.344 228.22L341.296 227.052C341.584 227.068 341.696 227.068 341.936 227.068C342.4 227.068 342.4 227.068 344.976 226.972C346.512 226.908 347.76 226.876 348.848 226.844ZM348.8 231.516C348.8 230.988 348.592 230.652 348.128 230.396C347.824 230.22 347.488 230.14 347.056 230.14C346.048 230.14 345.28 230.86 345.28 231.82C345.28 232.748 345.952 233.404 346.928 233.404C348.032 233.404 348.8 232.636 348.8 231.516ZM355.142 235.068L355.974 234.316C357.286 235.372 358.102 236.236 359.19 237.708L358.294 238.556C357.27 237.068 356.342 236.06 355.142 235.068ZM378.758 226.572H382.566C383.446 226.572 383.91 226.54 384.358 226.46V227.612C383.862 227.548 383.366 227.516 382.582 227.516H378.758V230.396H383.542C384.374 230.396 384.886 230.364 385.334 230.284V231.436C384.838 231.372 384.31 231.34 383.542 231.34H379.19C380.87 233.772 382.934 235.516 385.686 236.812C385.286 237.276 385.174 237.436 384.982 237.804C383.382 236.908 382.39 236.204 381.27 235.148C380.198 234.14 379.67 233.468 378.694 231.9C378.742 232.828 378.758 233.228 378.758 233.628V237.116C378.758 237.788 378.79 238.22 378.87 238.7H377.622C377.702 238.236 377.734 237.788 377.734 237.116V233.66C377.734 233.164 377.75 232.892 377.798 231.932C376.966 233.276 376.422 233.964 375.478 234.892C374.31 236.044 373.238 236.86 371.782 237.708C371.542 237.324 371.366 237.084 371.062 236.796C373.686 235.42 375.782 233.596 377.302 231.34H373.286C372.646 231.34 372.102 231.372 371.526 231.436V230.284C372.102 230.364 372.55 230.396 373.286 230.396H377.734V227.516H374.198C373.526 227.516 373.03 227.548 372.438 227.612V226.46C373.014 226.54 373.446 226.572 374.198 226.572H377.734V225.436C377.734 224.908 377.702 224.54 377.638 224.124H378.854C378.774 224.508 378.758 224.78 378.758 225.436V226.572ZM394.742 231.116H396.214C397.11 229.788 397.574 228.892 398.118 227.452L399.11 227.852C398.55 229.084 398.054 229.996 397.334 231.116H399.702C400.63 231.116 401.078 231.084 401.462 231.004V232.14C400.966 232.076 400.438 232.044 399.67 232.044H395.222C396.23 233.244 396.582 233.612 397.334 234.268C398.726 235.484 400.022 236.3 401.654 236.972C401.366 237.292 401.19 237.548 400.966 237.964C399.35 237.148 398.118 236.316 396.934 235.244C396.102 234.476 395.558 233.82 394.678 232.556C394.726 233.436 394.742 233.868 394.742 234.284V237.148C394.742 237.804 394.774 238.236 394.854 238.7H393.638C393.718 238.22 393.75 237.804 393.75 237.148V234.284C393.75 233.804 393.766 233.532 393.814 232.572C392.79 234.156 392.086 234.956 390.806 236.012C389.878 236.78 388.998 237.372 387.942 237.964C387.686 237.548 387.574 237.388 387.222 237.036C388.87 236.236 390.374 235.196 391.67 233.916C392.262 233.34 392.406 233.18 393.302 232.044H389.126C388.486 232.044 388.006 232.076 387.366 232.14V231.004C387.91 231.084 388.374 231.116 389.11 231.116H393.75V226.924H389.926C389.302 226.924 388.774 226.956 388.214 227.02V225.9C388.774 225.98 389.254 226.012 389.958 226.012H393.75V225.484C393.75 224.94 393.718 224.588 393.654 224.156H394.838C394.758 224.556 394.742 224.844 394.742 225.484V226.012H398.822C399.734 226.012 400.198 225.98 400.598 225.9V227.02C400.118 226.956 399.622 226.924 398.854 226.924H394.742V231.116ZM389.526 227.852L390.39 227.436C391.078 228.508 391.35 229.036 391.974 230.396L391.078 230.86C390.55 229.564 390.23 228.94 389.526 227.852ZM407.958 226.732H408.214C408.742 225.612 408.934 225.052 408.982 224.54L410.262 224.764C410.118 224.972 410.118 224.972 409.846 225.628C409.638 226.14 409.43 226.572 409.35 226.716C409.542 226.7 409.542 226.7 409.686 226.7C412.246 226.572 413.846 226.38 414.726 226.092L414.822 227.18C414.566 227.196 414.47 227.212 414.182 227.26C412.518 227.484 410.838 227.612 408.902 227.676C408.422 228.62 408.022 229.26 407.462 229.948C407.302 230.14 406.982 230.508 406.918 230.556C406.806 230.636 406.726 230.7 406.71 230.716C406.71 230.732 406.694 230.732 406.694 230.732C406.694 230.748 406.694 230.748 406.694 230.748C406.71 230.78 406.71 230.78 406.726 230.796C407.302 230.348 407.302 230.348 407.462 230.236C408.198 229.724 409.046 229.452 409.878 229.452C411.062 229.452 411.782 230.044 411.99 231.228C413.158 230.764 414.07 230.428 414.774 230.172C415.558 229.9 415.606 229.884 415.862 229.708L416.374 230.828C415.542 230.972 414.102 231.452 412.102 232.236C412.134 232.652 412.134 232.812 412.134 233.212C412.134 233.42 412.134 233.772 412.118 234.092C412.102 234.444 412.102 234.668 412.102 234.812C412.102 235.036 412.102 235.164 412.134 235.388L411.046 235.404C411.094 235.052 411.142 234.076 411.142 233.1C411.142 232.844 411.142 232.812 411.126 232.62C408.95 233.644 408.118 234.396 408.118 235.356C408.118 236.412 409.11 236.876 411.366 236.876C412.95 236.876 414.726 236.62 415.638 236.252L415.782 237.484C415.542 237.5 415.462 237.516 415.142 237.564C413.878 237.772 412.486 237.884 411.254 237.884C408.39 237.884 406.998 237.068 406.998 235.42C406.998 234.54 407.542 233.708 408.63 232.892C409.174 232.492 409.942 232.076 411.014 231.612C410.886 230.732 410.502 230.348 409.75 230.348C408.742 230.348 407.478 230.94 406.182 232.044C405.558 232.572 405.206 232.94 404.95 233.372L404.054 232.476C405.158 231.628 406.486 229.948 407.638 227.9C407.686 227.82 407.686 227.82 407.782 227.66C407.718 227.676 407.558 227.692 407.478 227.692C407.222 227.692 405.718 227.66 405.126 227.644C405.046 227.644 404.918 227.644 404.87 227.644C404.726 227.644 404.694 227.644 404.518 227.66L404.534 226.556C405.11 226.668 406.326 226.732 407.958 226.732ZM422.774 226.38H421.574C421.014 227.164 420.598 227.66 419.958 228.252C419.702 227.964 419.526 227.836 419.158 227.612C420.502 226.508 421.318 225.388 421.782 224.028L422.806 224.332C422.55 224.812 422.438 225.036 422.134 225.532H424.662C425.43 225.532 425.846 225.5 426.246 225.436V226.444C425.862 226.396 425.382 226.38 424.774 226.38H423.734C424.054 226.876 424.23 227.148 424.566 227.788L423.686 228.108C423.35 227.372 423.142 226.956 422.774 226.38ZM426.71 233.82H431.654C432.518 233.82 432.998 233.788 433.462 233.724V234.764C432.902 234.7 432.39 234.668 431.654 234.668H427.43C428.934 235.948 431.062 236.876 433.718 237.436C433.382 237.852 433.27 238.028 433.094 238.444C431.606 238.012 430.71 237.66 429.702 237.164C428.47 236.556 427.526 235.9 426.646 235.02C426.694 235.548 426.71 235.964 426.71 236.252V237.148C426.71 237.964 426.726 238.396 426.806 238.764H425.654C425.718 238.348 425.75 237.916 425.75 237.148V236.252C425.75 235.932 425.766 235.596 425.814 235.02C424.966 235.788 424.198 236.332 423.062 236.94C422.054 237.484 421.126 237.852 419.542 238.364C419.35 237.948 419.158 237.66 418.902 237.42C421.334 236.876 423.462 235.916 425.062 234.668H421.174C420.454 234.668 419.958 234.7 419.398 234.764V233.724C419.814 233.788 420.326 233.82 421.174 233.82H425.75C425.75 233.276 425.734 233.052 425.686 232.716C425.43 232.908 425.318 232.988 424.966 233.196C424.742 232.876 424.598 232.732 424.246 232.492C425.846 231.708 426.278 231.02 426.278 229.164C426.278 228.764 426.262 228.54 426.214 228.22C426.55 228.268 426.886 228.284 427.526 228.284H429.894C430.47 228.284 430.902 228.268 431.254 228.22C431.206 228.684 431.19 229.084 431.19 229.772V231.58C431.19 231.868 431.238 231.884 431.798 231.884C432.406 231.884 432.55 231.852 432.598 231.676C432.662 231.468 432.726 230.7 432.726 229.868C433.062 230.092 433.254 230.188 433.59 230.3C433.558 231.292 433.446 231.948 433.286 232.236C433.094 232.62 432.742 232.732 431.702 232.732C430.518 232.732 430.262 232.556 430.262 231.804V229.1H427.174C427.126 231.068 426.822 231.804 425.718 232.7H426.774C426.726 233.036 426.71 233.26 426.71 233.82ZM429.046 226.38H427.606C427.222 226.988 426.95 227.356 426.422 227.932C426.182 227.676 426.038 227.58 425.654 227.372C426.662 226.396 427.27 225.388 427.686 223.996L428.662 224.3C428.406 224.908 428.342 225.036 428.086 225.532H431.782C432.566 225.532 432.998 225.516 433.494 225.436V226.46C432.982 226.396 432.486 226.38 431.814 226.38H430.022C430.374 226.86 430.55 227.132 430.822 227.596L429.99 228.044C429.718 227.468 429.478 227.02 429.046 226.38ZM422.102 229.292H421.158C420.55 229.292 420.246 229.308 419.846 229.372V228.396C420.23 228.46 420.502 228.476 421.158 228.476H423.926C424.614 228.476 424.886 228.46 425.254 228.396V229.372C424.87 229.308 424.55 229.292 423.974 229.292H423.046V231.196C423.798 230.988 424.182 230.876 425.254 230.524L425.334 231.308C423.702 231.868 422.358 232.268 420.63 232.668C420.134 232.796 420.038 232.812 419.67 232.924L419.366 231.916C420.07 231.868 420.582 231.772 422.102 231.42V229.292ZM427.43 230.076L428.086 229.596C428.774 230.38 429.094 230.796 429.622 231.58L428.918 232.14C428.406 231.26 428.038 230.732 427.43 230.076ZM444.31 224.604L445.43 225.436C445.254 225.58 445.126 225.692 443.462 227.292C442.662 228.044 441.798 228.764 439.782 230.316C439.19 230.764 439.078 230.892 439.078 231.116C439.078 231.404 439.206 231.516 440.502 232.524C442.822 234.3 443.27 234.668 445.622 236.892C445.862 237.132 445.894 237.148 446.07 237.292L445.062 238.284C444.678 237.74 444.054 237.068 442.998 236.092C441.926 235.1 441.286 234.572 438.95 232.748C438.054 232.044 437.798 231.692 437.798 231.148C437.798 230.764 437.958 230.396 438.262 230.076C438.454 229.884 438.454 229.884 439.622 228.988C441.75 227.356 443.75 225.484 444.31 224.604ZM451.51 232.14L451.334 231.116C451.542 231.148 451.734 231.164 452.054 231.164C452.198 231.164 452.486 231.148 452.694 231.148C453.19 230.54 453.334 230.364 453.798 229.708C452.854 228.556 452.262 227.964 451.238 227.116L451.75 226.316C452.214 226.7 452.31 226.796 452.678 227.148C453.398 226.092 454.118 224.764 454.262 224.172L455.302 224.604C455.142 224.812 455.142 224.812 454.726 225.564C454.23 226.412 453.798 227.084 453.302 227.788C453.83 228.348 453.91 228.444 454.342 228.956C455.414 227.356 455.974 226.412 456.182 225.82L457.11 226.364C456.982 226.524 456.886 226.668 456.678 226.972C455.59 228.716 454.502 230.252 453.782 231.084C454.758 231.02 455.126 230.988 456.358 230.828C456.07 230.236 455.99 230.092 455.638 229.564L456.39 229.228C457.11 230.38 457.51 231.18 457.942 232.252L457.142 232.652C456.934 232.108 456.87 231.948 456.71 231.58C455.958 231.692 455.414 231.756 455.062 231.788V237.004C455.062 237.708 455.094 238.188 455.158 238.652H453.99C454.054 238.156 454.086 237.66 454.086 237.004V231.9C453.59 231.948 453.382 231.964 453.126 231.98C451.926 232.06 451.926 232.06 451.51 232.14ZM452.31 232.94L453.206 233.148C452.646 236.044 452.55 236.412 451.99 237.628L451.11 237.196C451.702 236.06 451.91 235.308 452.31 232.94ZM455.766 233.116L456.55 232.86C456.982 234.06 457.158 234.716 457.398 236.06L456.55 236.3C456.39 235.116 456.134 234.076 455.766 233.116ZM464.39 237.116H464.518C465.014 237.116 465.414 237.084 465.782 237.02V238.108C465.334 238.044 464.838 238.012 464.246 238.012H457.846C457.254 238.012 456.79 238.044 456.342 238.108V237.02C456.726 237.084 457.126 237.116 457.686 237.116H458.31V226.604C458.31 225.948 458.294 225.484 458.246 224.956C458.71 224.988 459.126 225.004 459.846 225.004H462.694C463.51 225.004 464.006 224.988 464.438 224.94C464.406 225.468 464.39 225.82 464.39 226.764V237.116ZM459.27 225.932V228.972H463.43V225.932H459.27ZM459.27 229.868V232.988H463.43V229.868H459.27ZM459.27 233.884V237.116H463.43V233.884H459.27ZM476.214 229.004H477.91C477.862 228.108 477.862 227.852 477.846 225.564C477.83 224.94 477.83 224.732 477.782 224.38H478.838C478.774 224.812 478.758 225.164 478.758 225.868C478.758 227.068 478.774 228.172 478.79 229.004H480.038C480.854 229.004 481.254 228.988 481.75 228.908V229.948C481.206 229.868 480.838 229.852 480.038 229.852H478.838C478.902 231.324 479.046 232.556 479.286 233.692C479.782 232.732 480.15 231.644 480.31 230.732L481.19 231.164C481.094 231.388 481.03 231.564 480.822 232.14C480.47 233.116 480.118 233.9 479.59 234.796C479.862 235.676 480.15 236.316 480.534 236.876C480.694 237.116 480.71 237.132 480.838 237.132C481.014 237.004 481.11 236.46 481.222 235.116C481.494 235.372 481.606 235.468 482.022 235.724C481.798 237.564 481.462 238.348 480.886 238.348C480.294 238.348 479.51 237.308 478.95 235.756C478.006 237.052 477.286 237.756 475.99 238.684C475.798 238.38 475.622 238.22 475.27 237.996C476.79 237.036 477.798 236.076 478.646 234.796C478.262 233.356 478.054 231.964 477.942 229.852H473.366C472.662 229.852 472.294 229.868 471.814 229.932V228.924C472.31 228.988 472.614 229.004 473.414 229.004C473.286 228.076 473.206 227.612 472.998 226.716C472.47 226.732 472.47 226.732 472.15 226.764V225.868C472.518 225.932 472.79 225.948 473.334 225.948H474.438V225.74C474.438 225.052 474.422 224.716 474.342 224.364H475.414C475.35 224.716 475.318 225.068 475.318 225.756V225.948H476.246C476.934 225.948 477.206 225.932 477.478 225.884V226.764C477.174 226.732 477.174 226.732 476.742 226.716C476.582 227.66 476.47 228.124 476.214 229.004ZM474.246 229.004H475.366C475.622 228.22 475.75 227.612 475.878 226.716H473.862C473.894 226.844 473.894 226.844 473.926 227.068C474.038 227.58 474.102 228.076 474.246 229.004ZM467.11 232.188L466.998 231.148C467.238 231.18 467.382 231.196 467.638 231.196C467.702 231.196 467.734 231.196 468.022 231.18C468.454 230.556 468.79 230.044 469.03 229.66C468.486 228.796 467.958 228.092 467.078 227.1L467.638 226.38C467.91 226.716 467.974 226.796 468.166 227.052C468.774 226.092 469.334 224.892 469.494 224.188L470.438 224.636C470.246 224.924 470.246 224.924 469.798 225.82C469.526 226.348 469.094 227.068 468.678 227.708C469.062 228.22 469.238 228.476 469.494 228.876C470.486 227.212 470.758 226.652 470.95 225.964L471.878 226.412C471.75 226.604 471.686 226.716 471.398 227.244C470.678 228.572 469.846 229.9 468.966 231.148C470.63 231.02 470.63 231.02 471.142 230.956C470.966 230.444 470.87 230.204 470.598 229.596L471.286 229.34C471.734 230.38 472.038 231.244 472.31 232.236L471.558 232.54C471.462 232.14 471.43 231.996 471.35 231.708C470.822 231.788 470.822 231.788 470.31 231.836V236.908C470.31 237.852 470.342 238.316 470.406 238.748H469.318C469.382 238.316 469.414 237.82 469.414 236.908V231.932C469.094 231.964 469.094 231.964 468.374 232.028C467.446 232.108 467.446 232.108 467.11 232.188ZM467.878 232.972L468.71 233.116C468.518 235.1 468.278 236.412 467.91 237.564L467.126 237.18C467.542 235.98 467.766 234.748 467.878 232.972ZM470.838 233.164L471.59 232.972C471.942 234.38 471.99 234.62 472.262 236.492L471.462 236.748C471.318 235.196 471.174 234.332 470.838 233.164ZM476.998 232.428V235.196C476.998 235.98 476.998 236.204 477.03 236.508C476.63 236.476 476.438 236.476 475.702 236.476H473.67V237.74H472.726C472.79 237.324 472.822 236.876 472.822 236.252V232.412C472.822 231.74 472.806 231.388 472.742 230.892C473.046 230.94 473.318 230.956 473.894 230.956H475.942C476.454 230.956 476.726 230.94 477.046 230.892C477.014 231.26 476.998 231.66 476.998 232.428ZM473.686 231.74V233.276H476.166V231.74H473.686ZM473.67 234.06V235.676H476.166V234.06H473.67ZM481.382 227.836L480.55 228.284C480.134 227.228 479.846 226.7 479.158 225.724L479.91 225.356C480.566 226.236 480.87 226.764 481.382 227.836ZM484.166 233.516L483.382 232.332C483.99 231.932 485.254 230.54 486.598 228.764C487.062 228.156 487.19 227.996 487.398 227.804C487.846 227.404 488.262 227.196 488.678 227.196C489.126 227.196 489.558 227.42 490.054 227.916C490.214 228.06 490.486 228.364 491.222 229.212C492.694 230.908 494.886 233.052 496.294 234.14C496.902 234.62 497.222 234.828 497.574 234.972L497.03 236.348C496.886 236.204 496.854 236.172 496.646 236.012C495.654 235.228 493.83 233.596 492.758 232.54C491.814 231.58 491.206 230.924 489.654 229.116C489.222 228.62 488.966 228.428 488.694 228.428C488.342 228.428 488.198 228.556 487.43 229.58C486.486 230.844 485.654 231.852 484.63 232.988C484.342 233.308 484.31 233.34 484.166 233.516Z" fill="white"/>
<g clip-path="url(#clip1_2020_2172)">
<path d="M197.317 175.482C197.197 178.02 193.107 180.149 187.778 180.149C182.448 180.149 178 178.02 178 175.482C178 172.945 182.806 170.316 188.144 170.316C193.483 170.316 197.5 171.685 197.317 175.482Z" fill="white"/>
<path d="M206.517 166.492C206.114 169.12 202.683 170.453 198.813 169.873C194.942 169.293 192.108 167.009 192.52 164.381C192.933 161.752 196.611 159.831 200.473 160.42C204.334 161.009 206.921 163.864 206.517 166.492Z" fill="white"/>
<path d="M210.506 158.934C209.185 160.701 205.791 160.602 203.021 158.572C199.994 156.351 199.068 153.479 200.389 151.711C201.71 149.944 205.021 150.162 207.8 152.183C210.579 154.204 211.826 157.167 210.515 158.934H210.506Z" fill="white"/>
<path d="M208.139 144.443C209.634 145.467 210.331 146.926 209.808 147.669C209.285 148.412 207.772 148.258 206.286 147.234C204.8 146.21 203.883 144.688 204.406 143.944C204.929 143.201 206.653 143.419 208.148 144.443H208.139Z" fill="white"/>
<path d="M206.398 183.339C206.939 185.931 204.196 188.94 200.582 189.674C196.739 190.453 193.006 188.768 192.465 186.176C191.924 183.584 194.455 181.191 198.528 180.249C202.6 179.306 205.866 180.747 206.398 183.348V183.339Z" fill="white"/>
<path d="M210.369 191.043C211.644 192.91 210.543 195.873 207.865 198.048C205.177 200.242 201.628 200.513 200.252 198.728C198.876 196.943 199.977 193.744 202.756 191.668C205.535 189.593 209.103 189.185 210.369 191.043Z" fill="white"/>
<path d="M208.387 206.367C206.956 207.527 205.158 207.844 204.498 207.092C203.893 206.403 204.59 204.872 206.021 203.712C207.451 202.552 209.057 202.198 209.671 202.878C210.377 203.657 209.809 205.207 208.387 206.367Z" fill="white"/>
<path d="M219.898 196.027C219.054 197.278 217.706 197.839 216.917 197.305C216.128 196.77 216.229 195.374 217.054 194.097C217.88 192.828 219.155 192.248 219.953 192.764C220.677 193.236 220.567 195.021 219.898 196.027Z" fill="white"/>
<path d="M219.017 186.584C217.797 189.185 215.027 190.454 213.193 189.493C211.358 188.532 210.863 185.968 212.138 183.376C213.404 180.802 215.999 179.198 217.953 180.168C219.65 181.01 220.255 183.929 219.008 186.584H219.017Z" fill="white"/>
<path d="M224.824 174.965C224.824 177.856 223.504 179.859 221.871 179.859C220.238 179.859 218.881 177.63 218.881 174.92C218.881 172.21 220.11 170.053 221.871 170.071C223.504 170.08 224.824 172.265 224.824 174.965Z" fill="white"/>
<path d="M226.897 185.27C226.76 186.548 225.888 187.517 225.155 187.409C224.421 187.3 223.981 186.131 224.192 184.789C224.403 183.448 225.228 182.406 225.898 182.578C226.751 182.796 227.044 183.929 226.897 185.27Z" fill="white"/>
<path d="M233.033 175.111C233.198 177.993 231.712 180.131 230.18 180.213C228.649 180.295 227.493 177.975 227.456 175.374C227.419 172.691 228.337 170.398 229.988 170.407C231.519 170.407 232.877 172.401 233.033 175.102V175.111Z" fill="white"/>
<path d="M228.365 164.498C228.879 167.217 227.723 169.909 226.338 170.09C224.825 170.289 223.311 168.06 222.834 165.504C222.357 162.922 223.064 160.629 224.65 160.402C226.237 160.176 227.861 161.861 228.365 164.498Z" fill="white"/>
<path d="M212.782 174.893C212.782 176.262 211.608 177.367 210.168 177.367C208.728 177.367 207.517 176.262 207.554 174.893C207.581 173.561 208.948 172.482 210.204 172.482C211.653 172.482 212.791 173.525 212.791 174.893H212.782Z" fill="white"/>
<path d="M217.523 164.163C218.101 165.251 218.046 166.683 217.11 167.226C216.175 167.77 214.9 167.018 214.276 165.876C213.606 164.662 213.817 163.293 214.716 162.822C215.615 162.351 216.872 162.949 217.532 164.172L217.523 164.163Z" fill="white"/>
<path d="M221.219 153.234C222.98 155.69 222.732 158.971 221.357 159.85C219.788 160.856 217.33 159.324 215.725 156.977C214.147 154.666 213.707 151.983 215.285 150.959C216.789 149.98 219.513 150.841 221.219 153.225V153.234Z" fill="white"/>
<path d="M248.461 151.339V200.531H263.229V203.666H244.967V151.339H248.461Z" fill="white"/>
<path d="M294.837 171.658H298.01V203.667H294.837V197.94C291.58 202.879 286.417 204.528 282.216 204.528C273.722 204.528 266.412 198.175 266.412 187.663C266.412 177.775 272.768 170.951 282.216 170.951C287.297 170.951 291.746 172.909 294.837 177.232V171.658ZM269.742 187.427C269.742 194.641 274.263 201.546 282.445 201.546C290.627 201.546 294.993 194.804 294.993 187.427C294.993 177.938 287.93 173.933 282.372 173.933C275.942 173.933 269.751 178.718 269.751 187.427H269.742Z" fill="white"/>
<path d="M309.447 171.658H312.62V176.679C314.124 174.014 317.069 170.951 322.545 170.951C328.341 170.951 330.799 174.322 331.515 175.419C332.946 177.694 333.102 180.675 333.102 183.503V203.667H329.928V183.503C329.928 181.31 329.846 178.872 328.653 177.068C327.938 175.89 326.195 173.933 322.297 173.933C317.848 173.933 315.546 176.289 314.354 178.401C312.923 180.911 312.611 183.893 312.611 187.028V203.658H309.438V171.658H309.447Z" fill="white"/>
<path d="M358.353 177.539C357.243 175.029 355.014 173.932 352.712 173.932C349.062 173.932 347.236 176.678 347.236 179.035C347.236 182.17 349.777 183.194 352.951 184.445C356.207 185.705 359.224 186.566 361.288 189.148C362.637 190.798 362.958 192.52 362.958 194.323C362.958 201.619 357.399 204.519 352.4 204.519C346.998 204.519 342.559 201.383 341.201 196.045L344.301 195.103C345.411 199.344 348.823 201.537 352.4 201.537C356.528 201.537 359.628 198.637 359.628 194.477C359.628 190.87 357.326 189.538 352.4 187.572C349.144 186.239 346.76 185.215 345.338 183.33C344.622 182.388 343.907 181.056 343.907 179.171C343.907 174.304 347.64 170.933 352.565 170.933C356.381 170.933 359.555 172.655 361.059 176.107L358.362 177.521L358.353 177.539Z" fill="white"/>
<path d="M378.678 154.475V203.666H375.183V154.475H361.443V151.339H392.409V154.475H378.669H378.678Z" fill="white"/>
<path d="M394.16 188.052C394.16 196.209 400.196 201.546 407.02 201.546C412.257 201.546 416.229 198.483 418.292 194.251L420.989 195.819C419.081 199.426 414.798 204.528 406.772 204.528C396.692 204.528 390.812 197.151 390.812 187.817C390.812 176.679 398.59 170.951 406.534 170.951C415.265 170.951 421.86 177.857 421.86 188.052H394.151H394.16ZM418.54 185.071C417.742 178.718 412.982 173.933 406.552 173.933C400.122 173.933 395.279 178.872 394.408 185.071H418.549H418.54Z" fill="white"/>
<path d="M457.211 179.189C455.065 176.76 451.332 173.933 446.012 173.933C438.069 173.933 432.511 179.978 432.511 187.817C432.511 196.997 439.573 201.546 445.847 201.546C451.011 201.546 455.056 198.565 457.596 195.819V200.06C455.45 201.945 451.479 204.528 445.764 204.528C435.996 204.528 429.172 197.387 429.172 187.898C429.172 178.41 435.602 170.951 446.003 170.951C448.305 170.951 452.753 171.341 457.202 175.029V179.189H457.211Z" fill="white"/>
<path d="M466.336 146.473H469.51V176.678C471.023 174.014 473.958 170.951 479.434 170.951C485.231 170.951 487.689 174.322 488.404 175.419C489.835 177.693 489.991 180.675 489.991 183.502V203.667H486.817V183.502C486.817 181.309 486.735 178.871 485.552 177.068C484.836 175.89 483.093 173.932 479.195 173.932C474.747 173.932 472.445 176.289 471.252 178.4C469.821 180.91 469.51 183.892 469.51 187.028V203.658H466.336V146.473Z" fill="white"/>
</g>
<path d="M238.74 283.416H237.494C237.564 282.912 237.592 282.534 237.592 281.834V274.358C237.592 273.658 237.564 273.294 237.494 272.776H238.74C238.656 273.294 238.628 273.658 238.628 274.372V276.738C238.628 276.962 238.628 277.074 238.586 277.438C238.866 276.976 239.02 276.766 239.356 276.486C239.958 275.968 240.602 275.73 241.456 275.73C243.094 275.73 244.074 276.696 244.074 278.334V281.848C244.074 282.492 244.102 282.898 244.172 283.416H242.912C242.982 282.954 243.01 282.534 243.01 281.834V278.53C243.01 277.312 242.408 276.654 241.316 276.654C240.532 276.654 239.888 276.99 239.342 277.676C238.95 278.18 238.768 278.558 238.642 279.146V281.834C238.642 282.45 238.67 282.87 238.74 283.416ZM247.017 273.784H248.277C248.207 274.232 248.179 274.736 248.179 275.338V275.87H248.851C249.495 275.87 249.789 275.856 250.279 275.786V276.85C249.831 276.78 249.481 276.766 248.851 276.766H248.179V281.638C248.179 282.044 248.235 282.254 248.361 282.38C248.515 282.534 248.753 282.618 249.047 282.618C249.411 282.618 249.691 282.534 250.153 282.254L250.461 283.234C249.887 283.472 249.453 283.556 248.879 283.556C248.263 283.556 247.787 283.402 247.507 283.122C247.227 282.842 247.115 282.436 247.115 281.778V276.766H246.555C246.079 276.766 245.757 276.794 245.295 276.85V275.786C245.687 275.856 245.967 275.87 246.555 275.87H247.115V275.338C247.115 274.778 247.087 274.246 247.017 273.784ZM252.499 273.784H253.759C253.689 274.232 253.661 274.736 253.661 275.338V275.87H254.333C254.977 275.87 255.271 275.856 255.761 275.786V276.85C255.313 276.78 254.963 276.766 254.333 276.766H253.661V281.638C253.661 282.044 253.717 282.254 253.843 282.38C253.997 282.534 254.235 282.618 254.529 282.618C254.893 282.618 255.173 282.534 255.635 282.254L255.943 283.234C255.369 283.472 254.935 283.556 254.361 283.556C253.745 283.556 253.269 283.402 252.989 283.122C252.709 282.842 252.597 282.436 252.597 281.778V276.766H252.037C251.561 276.766 251.239 276.794 250.777 276.85V275.786C251.169 275.856 251.449 275.87 252.037 275.87H252.597V275.338C252.597 274.778 252.569 274.246 252.499 273.784ZM258.331 286.356H257.099C257.169 285.81 257.197 285.362 257.197 284.788V277.48C257.197 276.808 257.169 276.402 257.099 275.87H258.219V276.668C258.219 276.85 258.205 277.004 258.177 277.242C258.807 276.248 259.787 275.73 261.033 275.73C263.189 275.73 264.505 277.2 264.505 279.636C264.505 282.016 263.161 283.542 261.061 283.542C259.829 283.542 258.835 283.024 258.177 282.058C258.219 282.45 258.233 282.66 258.233 283.038V284.774C258.233 285.432 258.261 285.838 258.331 286.356ZM260.963 282.632C262.489 282.632 263.413 281.498 263.413 279.636C263.413 277.732 262.517 276.64 260.949 276.64C259.339 276.64 258.247 277.844 258.247 279.65C258.247 280.56 258.541 281.4 259.045 281.89C259.535 282.366 260.235 282.632 260.963 282.632ZM265.758 281.372L266.906 281.176C267.004 281.694 267.116 281.946 267.396 282.198C267.746 282.52 268.306 282.688 269.02 282.688C270.238 282.688 271.008 282.17 271.008 281.344C271.008 280.952 270.868 280.658 270.574 280.476C270.238 280.266 269.958 280.182 268.922 279.972C267.802 279.734 267.326 279.566 266.85 279.244C266.36 278.908 266.094 278.39 266.094 277.774C266.094 277.27 266.304 276.794 266.696 276.416C267.186 275.94 267.942 275.688 268.88 275.688C269.832 275.688 270.574 275.912 271.078 276.36C271.442 276.668 271.638 276.99 271.82 277.634L270.714 277.816C270.63 277.438 270.56 277.27 270.364 277.074C270.042 276.724 269.538 276.542 268.908 276.542C267.886 276.542 267.158 277.06 267.158 277.802C267.158 278.124 267.326 278.404 267.634 278.572C267.956 278.754 268.32 278.866 269.188 279.048C270.546 279.356 270.994 279.524 271.414 279.846C271.848 280.196 272.086 280.728 272.086 281.302C272.086 282.702 270.896 283.57 268.978 283.57C267.704 283.57 266.724 283.192 266.206 282.478C265.996 282.184 265.898 281.946 265.758 281.372ZM275.055 275.87V277.256H273.669V275.87H275.055ZM275.055 283.416H273.669V282.03H275.055V283.416ZM281.373 272.776H282.409L277.369 285.586H276.319L281.373 272.776ZM288.004 272.776H289.04L284 285.586H282.95L288.004 272.776ZM297.588 283.416H296.622C296.566 283.122 296.468 282.758 296.342 282.366L294.97 278.292C294.942 278.222 294.872 277.928 294.732 277.41C294.62 277.802 294.508 278.18 294.466 278.32L293.108 282.366C292.968 282.772 292.856 283.178 292.814 283.416H291.834C291.75 283.066 291.75 283.038 291.526 282.352L290.028 277.522C289.86 277.004 289.636 276.346 289.468 275.87H290.756C290.784 276.304 290.882 276.78 291.078 277.396L292.1 280.882C292.17 281.12 292.254 281.414 292.352 281.904C292.436 281.582 292.604 281.022 292.646 280.896L293.976 276.934C294.13 276.514 294.228 276.122 294.256 275.87H295.194C295.236 276.122 295.334 276.514 295.474 276.934L296.818 280.966C296.86 281.092 296.944 281.4 297 281.596C297.056 281.806 297.056 281.806 297.084 281.904C297.21 281.358 297.28 281.036 297.308 280.952L298.358 277.396C298.54 276.794 298.638 276.276 298.666 275.87H299.94C299.828 276.164 299.646 276.724 299.394 277.522L297.882 282.366C297.7 282.926 297.644 283.136 297.588 283.416ZM308.362 283.416H307.396C307.34 283.122 307.242 282.758 307.116 282.366L305.744 278.292C305.716 278.222 305.646 277.928 305.506 277.41C305.394 277.802 305.282 278.18 305.24 278.32L303.882 282.366C303.742 282.772 303.63 283.178 303.588 283.416H302.608C302.524 283.066 302.524 283.038 302.3 282.352L300.802 277.522C300.634 277.004 300.41 276.346 300.242 275.87H301.53C301.558 276.304 301.656 276.78 301.852 277.396L302.874 280.882C302.944 281.12 303.028 281.414 303.126 281.904C303.21 281.582 303.378 281.022 303.42 280.896L304.75 276.934C304.904 276.514 305.002 276.122 305.03 275.87H305.968C306.01 276.122 306.108 276.514 306.248 276.934L307.592 280.966C307.634 281.092 307.718 281.4 307.774 281.596C307.83 281.806 307.83 281.806 307.858 281.904C307.984 281.358 308.054 281.036 308.082 280.952L309.132 277.396C309.314 276.794 309.412 276.276 309.44 275.87H310.714C310.602 276.164 310.42 276.724 310.168 277.522L308.656 282.366C308.474 282.926 308.418 283.136 308.362 283.416ZM319.135 283.416H318.169C318.113 283.122 318.015 282.758 317.889 282.366L316.517 278.292C316.489 278.222 316.419 277.928 316.279 277.41C316.167 277.802 316.055 278.18 316.013 278.32L314.655 282.366C314.515 282.772 314.403 283.178 314.361 283.416H313.381C313.297 283.066 313.297 283.038 313.073 282.352L311.575 277.522C311.407 277.004 311.183 276.346 311.015 275.87H312.303C312.331 276.304 312.429 276.78 312.625 277.396L313.647 280.882C313.717 281.12 313.801 281.414 313.899 281.904C313.983 281.582 314.151 281.022 314.193 280.896L315.523 276.934C315.677 276.514 315.775 276.122 315.803 275.87H316.741C316.783 276.122 316.881 276.514 317.021 276.934L318.365 280.966C318.407 281.092 318.491 281.4 318.547 281.596C318.603 281.806 318.603 281.806 318.631 281.904C318.757 281.358 318.827 281.036 318.855 280.952L319.905 277.396C320.087 276.794 320.185 276.276 320.213 275.87H321.487C321.375 276.164 321.193 276.724 320.941 277.522L319.429 282.366C319.247 282.926 319.191 283.136 319.135 283.416ZM322.615 282.03H324.001V283.416H322.615V282.03ZM325.992 272.776H327.252C327.182 273.28 327.154 273.658 327.154 274.358V281.848C327.154 282.478 327.182 282.856 327.252 283.416H325.992C326.062 282.912 326.09 282.478 326.09 281.848V274.344C326.09 273.658 326.062 273.28 325.992 272.776ZM334.23 283.416V282.422C333.684 282.912 333.418 283.094 332.942 283.276C332.466 283.458 331.962 283.556 331.486 283.556C329.946 283.556 329.008 282.758 329.008 281.428C329.008 280.308 329.708 279.496 331.01 279.132C331.836 278.894 332.508 278.81 334.23 278.768V277.956C334.23 277.004 333.628 276.514 332.466 276.514C331.696 276.514 331.122 276.71 330.73 277.116C330.548 277.312 330.436 277.508 330.296 277.928L329.204 277.69C329.456 277.046 329.638 276.752 329.988 276.444C330.562 275.912 331.402 275.646 332.452 275.646C334.3 275.646 335.252 276.43 335.252 277.942V281.876C335.252 282.506 335.28 282.856 335.364 283.416H334.23ZM334.23 280.504V279.594C332.564 279.636 331.766 279.734 331.136 280C330.422 280.294 330.072 280.77 330.072 281.442C330.072 282.212 330.646 282.702 331.556 282.702C332.368 282.702 333.25 282.31 333.796 281.708C334.118 281.358 334.23 281.064 334.23 280.504ZM338.559 283.416H337.299C337.383 282.884 337.411 282.506 337.411 281.834V277.452C337.411 276.822 337.383 276.43 337.299 275.87H338.461V276.822C338.461 276.99 338.461 277.102 338.419 277.424C339.077 276.276 339.987 275.73 341.247 275.73C342.255 275.73 343.039 276.094 343.487 276.78C343.753 277.186 343.879 277.704 343.879 278.39V281.848C343.879 282.562 343.907 282.954 343.977 283.416H342.717C342.787 282.87 342.815 282.45 342.815 281.834V278.572C342.815 277.312 342.213 276.64 341.107 276.64C340.323 276.64 339.693 276.99 339.105 277.746C338.741 278.222 338.573 278.572 338.461 279.132V281.834C338.461 282.45 338.489 282.87 338.559 283.416ZM345.547 281.372L346.695 281.176C346.793 281.694 346.905 281.946 347.185 282.198C347.535 282.52 348.095 282.688 348.809 282.688C350.027 282.688 350.797 282.17 350.797 281.344C350.797 280.952 350.657 280.658 350.363 280.476C350.027 280.266 349.747 280.182 348.711 279.972C347.591 279.734 347.115 279.566 346.639 279.244C346.149 278.908 345.883 278.39 345.883 277.774C345.883 277.27 346.093 276.794 346.485 276.416C346.975 275.94 347.731 275.688 348.669 275.688C349.621 275.688 350.363 275.912 350.867 276.36C351.231 276.668 351.427 276.99 351.609 277.634L350.503 277.816C350.419 277.438 350.349 277.27 350.153 277.074C349.831 276.724 349.327 276.542 348.697 276.542C347.675 276.542 346.947 277.06 346.947 277.802C346.947 278.124 347.115 278.404 347.423 278.572C347.745 278.754 348.109 278.866 348.977 279.048C350.335 279.356 350.783 279.524 351.203 279.846C351.637 280.196 351.875 280.728 351.875 281.302C351.875 282.702 350.685 283.57 348.767 283.57C347.493 283.57 346.513 283.192 345.995 282.478C345.785 282.184 345.687 281.946 345.547 281.372ZM354.355 273.784H355.615C355.545 274.232 355.517 274.736 355.517 275.338V275.87H356.189C356.833 275.87 357.127 275.856 357.617 275.786V276.85C357.169 276.78 356.819 276.766 356.189 276.766H355.517V281.638C355.517 282.044 355.573 282.254 355.699 282.38C355.853 282.534 356.091 282.618 356.385 282.618C356.749 282.618 357.029 282.534 357.491 282.254L357.799 283.234C357.225 283.472 356.791 283.556 356.217 283.556C355.601 283.556 355.125 283.402 354.845 283.122C354.565 282.842 354.453 282.436 354.453 281.778V276.766H353.893C353.417 276.766 353.095 276.794 352.633 276.85V275.786C353.025 275.856 353.305 275.87 353.893 275.87H354.453V275.338C354.453 274.778 354.425 274.246 354.355 273.784ZM365.563 279.804H359.669C359.711 280.742 359.851 281.26 360.229 281.764C360.677 282.38 361.363 282.716 362.203 282.716C363.337 282.716 364.121 282.156 364.513 281.078L365.493 281.47C365.227 282.058 365.045 282.31 364.723 282.632C364.065 283.276 363.211 283.612 362.189 283.612C359.991 283.612 358.605 282.072 358.605 279.65C358.605 277.256 359.977 275.688 362.077 275.688C363.883 275.688 365.185 276.85 365.465 278.726C365.479 278.88 365.535 279.426 365.563 279.804ZM359.711 278.922H364.443C364.359 278.138 364.149 277.634 363.701 277.2C363.267 276.78 362.721 276.57 362.049 276.57C361.195 276.57 360.481 277.004 360.061 277.788C359.865 278.138 359.795 278.39 359.711 278.922ZM373.569 277.858L372.547 278.18C372.141 277.088 371.469 276.57 370.433 276.57C368.893 276.57 367.913 277.774 367.913 279.65C367.913 281.498 368.921 282.674 370.489 282.674C371.287 282.674 371.945 282.352 372.309 281.778C372.449 281.568 372.519 281.4 372.617 281.064L373.667 281.344C373.471 281.848 373.331 282.114 373.093 282.422C372.477 283.192 371.581 283.598 370.447 283.598C368.249 283.598 366.835 282.072 366.835 279.678C366.835 277.256 368.235 275.674 370.377 275.674C371.539 275.674 372.477 276.122 373.079 276.962C373.275 277.228 373.401 277.452 373.569 277.858ZM376.525 283.416H375.279C375.349 282.912 375.377 282.534 375.377 281.834V274.358C375.377 273.658 375.349 273.294 375.279 272.776H376.525C376.441 273.294 376.413 273.658 376.413 274.372V276.738C376.413 276.962 376.413 277.074 376.371 277.438C376.651 276.976 376.805 276.766 377.141 276.486C377.743 275.968 378.387 275.73 379.241 275.73C380.879 275.73 381.859 276.696 381.859 278.334V281.848C381.859 282.492 381.887 282.898 381.957 283.416H380.697C380.767 282.954 380.795 282.534 380.795 281.834V278.53C380.795 277.312 380.193 276.654 379.101 276.654C378.317 276.654 377.673 276.99 377.127 277.676C376.735 278.18 376.553 278.558 376.427 279.146V281.834C376.427 282.45 376.455 282.87 376.525 283.416ZM383.906 282.03H385.292V283.416H383.906V282.03ZM393.667 277.858L392.645 278.18C392.239 277.088 391.567 276.57 390.531 276.57C388.991 276.57 388.011 277.774 388.011 279.65C388.011 281.498 389.019 282.674 390.587 282.674C391.385 282.674 392.043 282.352 392.407 281.778C392.547 281.568 392.617 281.4 392.715 281.064L393.765 281.344C393.569 281.848 393.429 282.114 393.191 282.422C392.575 283.192 391.679 283.598 390.545 283.598C388.347 283.598 386.933 282.072 386.933 279.678C386.933 277.256 388.333 275.674 390.475 275.674C391.637 275.674 392.575 276.122 393.177 276.962C393.373 277.228 393.499 277.452 393.667 277.858ZM398.779 283.598C396.483 283.598 395.027 282.072 395.027 279.65C395.027 277.228 396.483 275.688 398.765 275.688C401.047 275.688 402.489 277.228 402.489 279.636C402.489 282.03 401.033 283.598 398.779 283.598ZM398.793 276.57C397.127 276.57 396.105 277.732 396.105 279.622C396.105 281.526 397.127 282.688 398.765 282.688C400.403 282.688 401.411 281.526 401.411 279.636C401.411 277.746 400.403 276.57 398.793 276.57ZM404.113 282.03H405.499V283.416H404.113V282.03ZM407.826 272.776H409.184V274.036H407.826V272.776ZM407.868 275.87H409.128C409.058 276.36 409.03 276.752 409.03 277.452V284.326C409.03 285.81 408.4 286.454 406.944 286.454C406.048 286.454 405.488 286.188 404.858 285.432L405.824 284.802C406.188 285.334 406.496 285.53 407 285.53C407.714 285.53 407.966 285.194 407.966 284.242V277.452C407.966 276.766 407.938 276.36 407.868 275.87ZM412.427 286.356H411.195C411.265 285.81 411.293 285.362 411.293 284.788V277.48C411.293 276.808 411.265 276.402 411.195 275.87H412.315V276.668C412.315 276.85 412.301 277.004 412.273 277.242C412.903 276.248 413.883 275.73 415.129 275.73C417.285 275.73 418.601 277.2 418.601 279.636C418.601 282.016 417.257 283.542 415.157 283.542C413.925 283.542 412.931 283.024 412.273 282.058C412.315 282.45 412.329 282.66 412.329 283.038V284.774C412.329 285.432 412.357 285.838 412.427 286.356ZM415.059 282.632C416.585 282.632 417.509 281.498 417.509 279.636C417.509 277.732 416.613 276.64 415.045 276.64C413.435 276.64 412.343 277.844 412.343 279.65C412.343 280.56 412.637 281.4 413.141 281.89C413.631 282.366 414.331 282.632 415.059 282.632ZM424.586 272.776H425.622L420.582 285.586H419.532L424.586 272.776Z" fill="white"/>
<mask id="mask0_2020_2172" style="mask-type:alpha" maskUnits="userSpaceOnUse" x="0" y="0" width="662" height="400">
<rect width="662" height="400" fill="#D9D9D9"/>
</mask>
<g mask="url(#mask0_2020_2172)">
<path d="M713.418 315.465L304.365 421.699" stroke="#289E59"/>
<path d="M727.068 222.675L395.338 433.474" stroke="white"/>
<path d="M720.479 121.656L532.744 466.964" stroke="#BA76AA"/>
</g>
<mask id="mask1_2020_2172" style="mask-type:alpha" maskUnits="userSpaceOnUse" x="0" y="0" width="662" height="400">
<rect x="661.5" y="399.5" width="661" height="399" transform="rotate(-180 661.5 399.5)" fill="#D9D9D9" stroke="white"/>
</mask>
<g mask="url(#mask1_2020_2172)">
<path d="M-51.418 84.5352L357.635 -21.6994" stroke="#289E59"/>
<path d="M-65.0684 177.325L266.662 -33.4743" stroke="white"/>
<path d="M-58.4785 278.344L129.257 -66.9635" stroke="#BA76AA"/>
</g>
</g>
<defs>
<clipPath id="clip0_2020_2172">
<rect width="662" height="400" fill="white"/>
</clipPath>
<clipPath id="clip1_2020_2172">
<rect width="312" height="64" fill="white" transform="translate(178 143.5)"/>
</clipPath>
</defs>
</svg>
