<?xml version="1.0" encoding="UTF-8"?>
<svg id="_レイヤー_2" data-name="レイヤー 2" xmlns="http://www.w3.org/2000/svg" viewBox="0 0 131.1 28.35">
  <defs>
    <style>
      .cls-1 {
        fill: #231815;
      }

      .cls-2 {
        fill: #094;
      }
    </style>
  </defs>
  <g id="_レイヤー_1-2" data-name="レイヤー 1">
    <g>
      <path class="cls-2" d="M19.16,22.7h-.72s6.25-17.03,6.26-17.04c.06-.15.18-.09.14.03l-5.68,17.01ZM17.36,22.7s6.35-17.03,6.36-17.04c.05-.15.18-.09.14.03l-5.77,17.01h-.72M16.26,22.7s6.42-17.03,6.42-17.04c.06-.15.18-.09.14.03l-5.84,17.01h-.72M15.19,22.7s6.45-17.03,6.45-17.04c.05-.15.18-.09.14.03l-5.87,17.01h-.72M14.12,22.7s6.49-17.03,6.49-17.04c.05-.15.18-.09.14.03l-5.91,17.01h-.72M11.59,13.85l2.76-7.7,2.37,8.04-2.8,7.83-2.34-8.16M14.17,0C6.35,0,0,6.35,0,14.18c0,3.32,1.14,6.37,3.06,8.78L9.22,5.5h.66L3.56,23.56c.09.09.17.19.26.28L10.29,5.5h.66l-6.61,18.87c.09.09.18.18.28.26L11.37,5.5h.66l-6.87,19.61c.09.08.18.15.28.22L12.45,5.5h.66l-7.1,20.26c.09.06.18.13.27.19L13.51,5.5h.66l-7.29,20.82c2.13,1.28,4.62,2.02,7.29,2.02,7.83,0,14.17-6.35,14.17-14.17S22,0,14.17,0"/>
      <g>
        <path class="cls-1" d="M51.02,7.44h5.31c.19,0,.35-.16.35-.35v-1.42c0-.19-.16-.35-.35-.35h-20.55c-.19,0-.35.16-.35.35v1.42c0,.19.16.35.35.35h5.31c.19,0,.35.16.35.35v1.77c0,.19-.16.35-.35.35h-5.31c-.19,0-.35.16-.35.35v12.4c0,.19.16.35.35.35h20.55c.19,0,.35-.16.35-.35v-9.21c0-1.95-1.59-3.54-3.54-3.54h-2.13c-.19,0-.35-.16-.35-.35v-1.77c0-.19.16-.35.35-.35ZM44.29,7.8c0-.19.16-.35.35-.35h2.83c.19,0,.35.16.35.35v1.77c0,.19-.16.35-.35.35h-2.83c-.19,0-.35-.16-.35-.35v-1.77ZM38.27,12.4c0-.19.16-.35.35-.35h2.48c.19,0,.35.16.35.35v2.48c0,.19-.16.35-.35.35h-2.48c-.19,0-.35-.16-.35-.35v-2.48ZM53.86,20.55c0,.19-.16.35-.35.35h-14.88c-.19,0-.35-.16-.35-.35v-2.83c0-.19.16-.35.35-.35h2.14c1.94,0,3.53-1.6,3.53-3.54v-1.77h3.54v1.77c0,1.94,1.59,3.53,3.53,3.54h2.14c.19,0,.35.16.35.35v2.83ZM51.02,12.05h2.48c.19,0,.35.16.35.35v2.48c0,.19-.16.35-.35.35h-2.48c-.19,0-.35-.16-.35-.35v-2.48c0-.19.16-.35.35-.35Z"/>
        <g>
          <path class="cls-1" d="M119.7,17.17c.16-.11.45-.2.65-.2h10.4c.19,0,.35-.16.35-.35v-1.42c0-.19-.16-.35-.35-.35h-20.55c-.19,0-.35.16-.35.35v1.42c0,.19.16.35.35.35h5.19c.19,0,.22.09.06.2l-5.31,3.54c-.16.11-.29.36-.29.55v1.42c0,.19.16.35.35.35h20.55c.19,0,.35-.16.35-.35v-1.42c0-.19-.13-.44-.29-.55l-3.18-2.12c-.16-.11-.45-.2-.65-.2h-3.54c-.19,0-.22.09-.06.2l3.18,2.12c.16.11.14.2-.06.2h-12.05c-.19,0-.22-.09-.06-.2l5.31-3.54Z"/>
          <path class="cls-1" d="M130.81,13.05c.16.11.29.04.29-.16v-2.13c0-.19-.13-.44-.29-.55l-7.98-5.32c-1.3-.86-3.42-.86-4.72,0l-7.98,5.32h0c-.16.11-.29.36-.29.55v2.13c0,.19.13.27.29.16l2.25-1.5c.16-.11.29-.04.29.16v.33c0,.19.16.35.35.35h14.88c.19,0,.35-.16.35-.35v-.33c0-.19.13-.27.29-.16l2.24,1.5h0ZM126.29,10.28h-11.63c-.19,0-.22-.09-.06-.2l4.7-3.13c.65-.43,1.71-.43,2.36,0h0s.13.09.29.2l4.4,2.93c.16.11.14.2-.06.2Z"/>
        </g>
        <path class="cls-1" d="M102.76,7.44h3.19c.19,0,.35-.16.35-.35v-1.42c0-.19-.16-.35-.35-.35h-8.5c-.19,0-.35-.16-.35-.35v-.71c0-.19-.16-.35-.35-.35h-2.13c-.19,0-.35.16-.35.35v.72c0,.19-.16.34-.35.34h-8.5c-.19,0-.35.16-.35.35v1.42c0,.19.16.35.35.35h3.19c.19,0,.35.16.35.35v.99c0,.19-.16.35-.35.35h-3.19c-.19,0-.35.16-.35.35v13.18c0,.19.16.35.35.35h2.13c.19,0,.35-.16.35-.35v-5.14c0-.19.16-.37.35-.39.63-.04,1.23-.17,1.79-.39,0,0,0,0,0,0,.18-.06.33.04.33.24v5.69c0,.19.16.35.35.35h9.92c.19,0,.35-.16.35-.35v-5.69c0-.19.15-.3.33-.24,0,0,0,0,0,0,.56.22,1.16.36,1.79.39.19.02.35.2.35.39v5.15c0,.19.16.35.35.35h2.13c.19,0,.35-.16.35-.35v-9.99c0-1.95-1.59-3.54-3.54-3.54h0c-.19,0-.35-.16-.35-.35v-.99c0-.19.16-.35.35-.35ZM88.08,14.66h0c-.12,0-.21-.09-.21-.24v-2.8c0-.19.16-.35.35-.35h2.8c.15,0,.24.09.24.21-.1,1.71-1.48,3.09-3.19,3.19ZM98.15,20.55c0,.19-.16.35-.35.35h-4.25c-.19,0-.35-.16-.35-.35v-3.22c0-.19.16-.35.35-.35h4.25c.19,0,.35.16.35.35v3.22ZM98.39,14.85h-5.44c-.19,0-.28-.14-.18-.31.57-.84.92-1.84.98-2.92h0c.03-.19.22-.35.42-.35h3.02c.19,0,.38.16.42.35h0c.06,1.08.42,2.07.98,2.92.09.17.01.31-.18.31ZM99.57,8.79c0,.19-.16.35-.35.35h-7.09c-.19,0-.35-.16-.35-.35v-.99c0-.19.16-.35.35-.35h7.09c.19,0,.35.16.35.35v.99ZM103.11,11.27c.19,0,.35.16.35.35v2.8c0,.15-.09.24-.21.24h0c-1.71-.1-3.09-1.47-3.19-3.19,0-.12.09-.21.24-.21h2.8Z"/>
        <path class="cls-1" d="M67.44,22.74c-.11.16-.36.29-.55.29h-2.48c-.19,0-.27-.13-.16-.29l1.73-2.6c.11-.16.36-.29.55-.29h2.48c.19,0,.27.13.16.29l-1.73,2.6Z"/>
        <path class="cls-1" d="M78.26,22.74c.11.16.36.29.55.29h2.48c.19,0,.27-.13.16-.29l-1.73-2.6c-.11-.16-.36-.29-.55-.29h-2.48c-.19,0-.27.13-.16.29l1.73,2.6Z"/>
        <path class="cls-1" d="M74.62,7.44h6.52c.19,0,.35-.16.35-.35v-1.42c0-.19-.16-.35-.35-.35h-18.78c-1.17,0-2.13.96-2.13,2.13v15.24c0,.19.16.35.35.35h2.13c.19,0,.35-.16.35-.35V7.8c0-.19.16-.35.35-.35h7.65c.19,0,.35.16.35.35v.99c0,.19-.16.35-.35.35h-6.52c-.19,0-.35.16-.35.35v9c0,.19.16.35.35.35h6.52c.19,0,.35.16.35.35v3.47c0,.19.16.35.35.35h2.13c.19,0,.35-.16.35-.35v-3.47c0-.19.16-.35.35-.35h6.52c.19,0,.35-.16.35-.35v-5.81c0-1.94-1.59-3.54-3.53-3.54h-3.34c-.19,0-.35-.16-.35-.35v-.99c0-.19.16-.35.35-.35ZM78.66,16.41c0,.19-.16.35-.35.35h-10.91c-.19,0-.35-.16-.35-.35v-.99c0-.19.16-.35.35-.35h10.91c.19,0,.35.16.35.35v.99ZM78.31,11.27c.19,0,.35.16.35.35v.99c0,.19-.16.35-.35.35h-10.91c-.19,0-.35-.16-.35-.35v-.99c0-.19.16-.35.35-.35h10.91Z"/>
      </g>
    </g>
  </g>
</svg>